<svg width="30" height="30" viewBox="0 0 30 30" fill="none" xmlns="http://www.w3.org/2000/svg">
<path fill-rule="evenodd" clipRule="evenodd" d="M21.2514 8.06617C18.5371 8.06617 15.876 6.2073 14.5188 3.07474L14.1604 2.24692C13.5027 2.30102 12.8373 2.40694 12.1718 2.5724C8.77547 3.36718 5.89288 5.46768 4.06629 8.41973C2.94897 10.2255 2.3122 12.2331 2.16907 14.293L2.70171 14.5892C6.05142 16.4491 7.51155 20.4834 6.02279 23.8103L5.81625 24.2655C6.57288 25.0393 7.43101 25.7241 8.37591 26.3024C11.3441 28.119 14.8546 28.6867 18.2509 27.8635C18.6865 27.7596 19.1118 27.6352 19.526 27.4915L19.5639 26.3006C19.6756 22.3264 22.7199 18.7906 26.5182 18.2646L27.9689 18.0782C28.3967 16.1989 28.4087 14.1958 27.9262 12.195C27.4328 10.1342 26.4687 8.30407 25.1742 6.79148L23.7528 7.48097C22.9545 7.89406 22.103 8.06617 21.2514 8.06617ZM2.98175 7.73849C1.46238 10.221 0.751855 13.0154 0.887833 15.8471C0.68611 18.4691 2.24094 22.3061 3.82831 23.902C4.88248 25.2668 6.19293 26.4437 7.71947 27.381C10.0027 28.7719 12.5714 29.4815 15.1971 29.4815C16.3102 29.4815 17.4233 29.3396 18.5363 29.0841C26.2423 27.2675 30.98 19.5467 29.1534 11.9111C28.2687 8.19265 25.9854 5.07029 22.7033 3.02656C21.0932 2.05188 19.3458 1.41188 17.5453 1.11662C16.8855 0.96617 16.2726 0.9014 15.7547 0.937523C14.4585 0.889668 13.1495 1.01711 11.8579 1.32345C8.14758 2.20339 4.97958 4.50259 2.98175 7.73849ZM18.0765 18.5854C16.2115 20.1013 13.3858 19.9048 11.7752 17.9678C11.7223 17.9153 11.6804 17.8519 11.6358 17.7844C11.6089 17.7436 11.581 17.7013 11.5491 17.6591C10.3058 15.8344 10.5884 13.2517 12.4251 11.7639C13.3576 11.0059 14.4313 10.6971 15.6181 10.7813C16.4658 10.8375 17.257 11.1463 17.9352 11.6797L18.02 11.7639C18.0482 11.7779 18.0694 11.799 18.0906 11.82C18.1118 11.8411 18.133 11.8621 18.1613 11.8762L18.4156 12.1288C20.2241 13.9816 20.0828 16.9292 18.0765 18.5854ZM12.3831 17.2272C12.3634 17.1979 12.3388 17.162 12.31 17.1229C11.3398 15.6826 11.5702 13.6526 13.0131 12.4838L13.0143 12.4828C13.7509 11.8841 14.5863 11.6385 15.5519 11.707L15.5563 11.7073C16.194 11.7495 16.7923 11.9756 17.3175 12.3768L17.4688 12.5271L17.505 12.5451L17.5222 12.5598C17.5344 12.5701 17.5481 12.5812 17.5631 12.5927L17.7521 12.7805C19.1795 14.2482 19.0638 16.5624 17.4844 17.8688C16.0053 19.0686 13.7673 18.9086 12.4929 17.376L12.4647 17.342L12.45 17.3275C12.4469 17.3231 12.4426 17.3168 12.4369 17.3084L12.3831 17.2272ZM19.2916 11.2305C19.2633 11.1743 19.2068 11.1182 19.1503 11.0621C18.5286 10.4725 17.7939 10.0234 17.0592 9.82688C17.0113 9.81497 16.9633 9.79799 16.9132 9.78026C16.8452 9.75621 16.7732 9.73075 16.6919 9.71459C15.7029 9.43387 15.0812 9.46194 14.3466 9.57423C13.1598 9.77073 12.3403 10.0515 11.1252 11.1463C10.4753 11.7358 9.88192 12.8025 9.59935 14.0377C9.45806 14.6272 9.42981 15.4413 9.54283 16.087C9.82541 17.8275 10.7296 19.175 12.2555 20.1013C12.3403 20.1575 13.1315 20.5224 13.2728 20.5786C13.2869 20.5786 13.301 20.5856 13.3152 20.5926L13.3152 20.5926C13.3293 20.5996 13.3434 20.6066 13.3576 20.6066L13.4141 20.6347C13.4397 20.6432 13.4758 20.6543 13.5151 20.6664C13.6057 20.6942 13.7138 20.7274 13.7532 20.747C13.9227 20.8032 14.4596 20.8874 14.5161 20.8874C14.7422 20.9154 14.9682 20.9154 15.1943 20.9154C15.6464 20.9154 16.0985 20.8593 16.5506 20.7751C18.4721 20.354 20.1958 18.7258 20.7327 16.8169C20.987 15.8905 21.0153 14.908 20.7892 13.8974C20.5914 12.9148 20.0545 11.9884 19.2916 11.2305ZM17.1957 8.89541C17.1346 8.87401 17.0359 8.84004 16.9164 8.81342C15.7872 8.49732 15.0321 8.53052 14.2052 8.6569L14.1937 8.6588C13.5641 8.76304 12.9701 8.89922 12.3567 9.18045C11.7428 9.46193 11.1562 9.8669 10.5 10.4582L10.4977 10.4602C9.6735 11.2078 9.00536 12.46 8.69178 13.8271C8.52208 14.5387 8.49074 15.475 8.62379 16.2406C8.95081 18.2458 10.0133 19.8269 11.7704 20.8937C11.8507 20.9426 11.9562 20.9939 12.0126 21.0213L12.0211 21.0254C12.116 21.0716 12.2326 21.1267 12.3482 21.1806C12.5667 21.2823 12.8265 21.4004 12.9274 21.4405L13.0327 21.4823L13.0573 21.4945L13.12 21.5153C13.1521 21.5259 13.1897 21.5375 13.2196 21.5468L13.3142 21.576C13.3383 21.5835 13.3572 21.5897 13.3713 21.5944L13.3964 21.6068L13.4591 21.6276C13.6215 21.6814 13.8684 21.7268 14.0177 21.7526C14.1065 21.7679 14.193 21.7816 14.2635 21.7918L14.2706 21.7928C14.2972 21.7967 14.3593 21.8058 14.4251 21.8112C14.7006 21.8435 14.9667 21.8435 15.1746 21.8434L15.1943 21.8434C15.7223 21.8434 16.235 21.778 16.722 21.6873L16.7365 21.6845L16.7509 21.6814C19.0122 21.1858 21.0013 19.3026 21.6301 17.0672L21.6316 17.0616C21.9258 15.9897 21.957 14.8571 21.7009 13.7051C21.4665 12.5521 20.8542 11.4961 20.0186 10.6429C19.9315 10.5233 19.8414 10.4368 19.8147 10.4112L19.8084 10.4051L19.8008 10.3975L19.7929 10.39C19.0856 9.71931 18.2185 9.17589 17.301 8.9305L17.2872 8.92706C17.2856 8.9266 17.281 8.92517 17.2722 8.92221C17.2659 8.92009 17.2602 8.91816 17.2544 8.91611C17.248 8.91388 17.2413 8.9115 17.2331 8.90861L17.1957 8.89541Z" fill="#1A73E8"/>
</svg>
