<svg width="10" height="18" viewBox="0 0 10 18" fill="none" xmlns="http://www.w3.org/2000/svg">
<path d="M3.34923 16.556C3.34923 15.8623 3.91154 15.3 4.60519 15.3C5.29884 15.3 5.86115 15.8623 5.86115 16.556V16.744C5.86115 17.4377 5.29884 18 4.60519 18C3.91154 18 3.34923 17.4377 3.34923 16.744V16.556ZM5.02384 0C9.50344 0.198 11.4544 5.058 8.79173 8.703C8.09676 9.603 6.97477 10.197 6.42215 10.953C6.07042 11.4213 5.93921 11.9498 5.89027 12.5008C5.8414 13.0509 5.41343 13.5 4.86115 13.5H4.34923C3.79694 13.5 3.34424 13.052 3.35609 12.4999C3.37902 11.4317 3.47851 10.5206 3.91022 9.828C4.46285 8.928 5.58484 8.397 6.2798 7.803C8.30609 5.787 7.8037 2.934 5.02384 2.7C4.35764 2.7 3.71872 2.98446 3.24765 3.49081C2.99931 3.75774 2.80835 4.0748 2.68327 4.41986C2.49507 4.93909 2.06421 5.4 1.51192 5.4H0.999999C0.447715 5.4 -0.00888931 4.94897 0.086016 4.4049C0.271287 3.34279 0.75049 2.35656 1.47145 1.58162C2.4136 0.568927 3.69144 0 5.02384 0Z" fill="black" fill-opacity="0.6"/>
</svg>
