<svg width="16" height="16" viewBox="0 0 16 16" fill="none" xmlns="http://www.w3.org/2000/svg">
<path d="M8 1.9C8.27578 1.9 8.54885 1.95432 8.80364 2.05985C9.05842 2.16539 9.28992 2.32007 9.48492 2.51508C9.67993 2.71008 9.83461 2.94158 9.94015 3.19636C10.0457 3.45115 10.1 3.72422 10.1 4C10.1 4.27578 10.0457 4.54885 9.94015 4.80364C9.83461 5.05842 9.67993 5.28992 9.48492 5.48492C9.28992 5.67993 9.05842 5.83461 8.80364 5.94015C8.54885 6.04568 8.27578 6.1 8 6.1C7.44305 6.1 6.9089 5.87875 6.51508 5.48492C6.12125 5.0911 5.9 4.55695 5.9 4C5.9 3.44305 6.12125 2.9089 6.51508 2.51508C6.9089 2.12125 7.44305 1.9 8 1.9ZM8 10.9C10.97 10.9 14.1 12.36 14.1 13V14.1H1.9V13C1.9 12.36 5.03 10.9 8 10.9ZM8 0C5.79 0 4 1.79 4 4C4 6.21 5.79 8 8 8C10.21 8 12 6.21 12 4C12 1.79 10.21 0 8 0ZM8 9C5.33 9 0 10.34 0 13V16H16V13C16 10.34 10.67 9 8 9Z" fill="black" fill-opacity="0.6"/>
</svg>
