<svg width="17" height="29" viewBox="0 0 17 29" fill="none" xmlns="http://www.w3.org/2000/svg">
<path d="M12.5066 5.17416e-05C12.4696 0.000376431 12.432 0.00216308 12.3937 0.00553067C11.9211 0.0471429 11.5126 0.349587 11.2892 0.823299C11.2039 1.00423 11.182 1.16514 11.1523 1.82916C11.113 2.70424 11.0815 2.96221 10.9896 3.16272C10.8449 3.47808 10.2959 3.85285 9.50698 4.17455C8.95695 4.39883 8.57334 4.66459 8.18121 5.09309C7.62817 5.69743 7.40731 6.2529 7.20342 7.55171C7.1537 7.86844 7.11276 8.29107 7.1126 8.491C7.11237 8.72139 7.09102 8.87242 7.05418 8.90337C7.02221 8.93022 6.84965 8.99426 6.67063 9.0458C5.61079 9.35096 4.73539 9.92484 4.15335 10.6959C3.85869 11.0863 3.51773 11.8109 3.41396 12.2674C3.25014 12.988 3.2539 13.9306 3.42379 14.7572C3.52288 15.2393 3.5499 15.496 3.50205 15.5003C3.48018 15.5022 3.26352 15.5098 3.02057 15.5171C2.32958 15.5376 1.86205 15.7957 1.26327 16.4871C0.619 17.231 0.219588 18.2079 0.0483022 19.459C-0.0246702 19.992 -0.0130496 21.4831 0.0702492 22.2795C0.158627 23.1245 0.325239 23.9629 0.540224 24.645C0.647486 24.9853 1.0202 25.8171 1.63517 27.0882C2.14797 28.1481 2.57382 29.0083 2.58147 28.9999C2.58912 28.9916 2.79527 27.9961 3.03964 26.7877C3.59793 24.0271 3.71299 23.6076 4.07737 23.005C4.33016 22.5869 4.34654 22.5847 4.93059 22.8889C5.52951 23.2009 6.14659 23.3826 6.8786 23.4627C7.33471 23.5125 7.51027 23.5081 8.05725 23.4329C9.67066 23.2112 11.0588 22.487 12.1408 21.3024C12.5636 20.8395 12.6072 20.806 12.8622 20.7479C13.8511 20.5227 14.9918 19.4419 15.7102 18.0494C16.4428 16.6293 16.8269 15.0137 16.9745 12.7307C17.1347 10.2527 16.5404 8.61414 15.1729 7.76403C15.0296 7.67497 14.7704 7.55302 14.5968 7.49294C14.4232 7.43285 14.2619 7.35598 14.2384 7.32211C14.1952 7.26006 13.9923 6.44304 13.9935 6.33601C13.9938 6.30435 14.0641 6.1509 14.1497 5.99503C14.5023 5.35273 14.6769 4.42526 14.5953 3.62722C14.5387 3.0737 14.1242 1.6916 13.8229 1.05156C13.4849 0.3337 13.0624 -0.00481606 12.5066 5.17416e-05ZM12.4947 1.16628C12.7466 1.16628 12.9948 1.68177 13.391 3.02759C13.6679 3.96793 13.5889 4.80942 13.1539 5.55427C13.0481 5.73542 12.9081 5.94605 12.8427 6.02242L12.7237 6.1612L12.8687 6.50684C12.9485 6.69694 13.0492 7.00167 13.0923 7.18399C13.1718 7.52055 13.1977 8.14139 13.1402 8.33677C13.11 8.4396 13.1275 8.44532 13.563 8.4734C14.7512 8.55 15.4873 9.23048 15.8149 10.5553C15.9095 10.9379 15.9204 11.0944 15.9179 12.0288C15.9138 13.4871 15.7696 14.6145 15.4338 15.8117C14.959 17.5047 14.1313 18.7869 13.1068 19.417C12.7964 19.6079 12.5583 19.6244 12.3586 19.4684C12.2824 19.4089 12.2043 19.3802 12.1852 19.4047C12.166 19.4292 12.0479 19.6098 11.9228 19.8061C10.7127 21.7054 8.15104 22.7366 6.11256 22.145C5.73485 22.0354 4.95994 21.6184 4.65345 21.36L4.4031 21.1488L4.08267 21.389C3.2393 22.021 2.71906 23.0427 2.36957 24.7531C2.31225 25.0336 2.24613 25.3031 2.22275 25.3522C2.17302 25.4566 2.07507 25.4683 2.00857 25.3778C1.89376 25.2214 1.62455 24.5581 1.4938 24.1094C1.19524 23.0851 1.06424 22.0563 1.06136 20.7129C1.05933 19.7676 1.10381 19.373 1.28265 18.747C1.46654 18.1033 1.69852 17.6609 2.07018 17.2456C2.56817 16.6891 2.86439 16.5829 3.45225 16.75C3.82109 16.8548 4.06867 16.9958 4.83115 17.5354C5.81135 18.2291 5.8512 18.2449 5.96544 17.9808C6.06334 17.7546 6.14112 17.3618 6.09183 17.3428C5.93965 17.2843 5.52021 16.8981 5.33215 16.6434C5.04684 16.2571 4.68291 15.4497 4.53402 14.8731C4.31513 14.0254 4.29415 12.9798 4.48423 12.3889C4.77185 11.4948 5.39517 10.8239 6.3219 10.4107C6.77413 10.2091 7.05853 10.1236 7.73999 9.98492C8.04688 9.92246 8.30297 9.86754 8.30896 9.86291C8.31495 9.85827 8.28682 9.68391 8.24645 9.47544C8.15508 9.0036 8.17987 7.94831 8.29549 7.38802C8.55559 6.12761 8.88996 5.69288 9.94865 5.23918C10.2172 5.1241 10.5416 4.97219 10.6694 4.90151C11.2402 4.58607 11.7468 4.09778 11.9445 3.67287C12.0842 3.37249 12.1804 2.77401 12.2119 2.00762C12.2415 1.29101 12.2834 1.16628 12.4947 1.16628ZM11.7126 5.21428C11.6985 5.20919 11.6373 5.24205 11.5646 5.29496C11.4815 5.35542 11.0158 5.61997 10.5299 5.8828C9.44627 6.46895 9.30074 6.59552 9.16793 7.06646C9.11409 7.25738 9.05653 7.49748 9.04003 7.60002L9.01006 7.78645L9.60718 7.50921C10.5921 7.05218 10.6598 7.01368 10.8486 6.80151C11.0994 6.51977 11.3723 6.06766 11.5587 5.62532C11.645 5.42038 11.7156 5.23754 11.7156 5.21893C11.7156 5.2166 11.7146 5.21501 11.7126 5.21428H11.7126ZM12.2012 6.97997C12.167 6.97997 12.0019 7.12387 11.8343 7.2997C11.5519 7.59602 11.5296 7.63538 11.5296 7.83774C11.5296 8.08838 11.6226 8.31545 11.7722 8.4304C12.0914 8.67562 12.4131 8.30759 12.4131 7.69713C12.4131 7.36234 12.3001 6.97997 12.2012 6.97997ZM10.6251 7.94897C10.4063 7.94897 9.15066 8.57623 8.99795 8.76176C8.91578 8.86159 8.91245 8.89772 8.96147 9.15404C9.07202 9.73208 9.35668 10.2196 9.78139 10.5583C9.89294 10.6473 10.0213 10.7029 10.115 10.7029C10.2923 10.7029 10.7924 10.4296 11.1368 10.1445C11.3657 9.95491 11.6692 9.5305 11.6692 9.3999C11.6692 9.36604 11.6056 9.3094 11.5278 9.27407C11.12 9.08883 10.8667 8.73332 10.7381 8.16578C10.7101 8.04191 10.6616 7.94897 10.6251 7.94897ZM14.0525 9.43858C14.0394 9.43947 14.027 9.44223 14.0156 9.44705C13.9405 9.47866 13.808 9.9403 13.808 10.1704C13.808 10.2599 13.9254 10.7089 14.0688 11.1682C14.4795 12.4837 14.7163 13.298 14.8076 13.709C14.9103 14.171 14.9407 14.1145 15.0129 13.3284C15.1323 12.0264 15.0566 10.9327 14.8037 10.3055C14.6171 9.84271 14.2488 9.42538 14.0525 9.43858V9.43858ZM13.0007 9.70337C12.9957 9.70223 12.9903 9.7032 12.9843 9.70569C12.8444 9.76457 12.3607 10.161 11.9248 10.5741C11.0966 11.359 10.448 11.7744 10.0528 11.7734C9.81743 11.7727 9.46545 11.5433 9.06682 11.1309L8.74351 10.7964L8.40447 10.854C7.89206 10.9409 7.11015 11.1467 6.73042 11.2947C6.03191 11.567 5.60762 11.9232 5.38164 12.4266C5.23057 12.7632 5.22907 12.773 5.22922 13.5068C5.2293 14.1786 5.24168 14.2899 5.36151 14.7063C5.58326 15.4767 5.92331 16.0961 6.24849 16.3224C6.37055 16.4073 6.44649 16.418 6.76357 16.3943C6.96816 16.3789 7.38664 16.3085 7.69353 16.2377C8.33368 16.0901 10.1811 15.5395 10.1811 15.4963C10.1811 15.4459 9.5963 15.0434 9.36106 14.9319C8.55628 14.5503 7.80356 14.5333 6.52865 14.868C6.21999 14.949 5.9658 14.9894 5.89233 14.9692C5.7565 14.9318 5.69464 14.7869 5.73643 14.6043C5.77477 14.4368 6.39325 13.9387 6.95216 13.625C8.30866 12.8638 9.71948 12.7399 11.1343 13.258C11.9752 13.5659 12.5464 13.9193 13.9243 14.9842C14.1033 15.1225 14.2665 15.2177 14.2869 15.1955C14.3792 15.0954 14.0022 13.5109 13.5518 12.1054C13.0627 10.5793 13.0563 10.5532 13.0509 10.1021C13.0475 9.81524 13.0356 9.71135 13.0007 9.70337V9.70337ZM9.17746 13.8204C8.62858 13.814 8.57542 13.8592 8.99704 13.9627C9.72404 14.1411 10.3867 14.5795 11.0415 15.315C11.5163 15.8484 11.6331 15.9455 11.8783 16.0104C12.1982 16.0951 13.0449 16.0271 13.3455 15.8926L13.4955 15.8255L12.8729 15.3125C12.1288 14.6995 11.8185 14.4879 11.3094 14.2466C10.6447 13.9315 10.2935 13.8524 9.4431 13.8264C9.34439 13.8234 9.25588 13.8214 9.17746 13.8204V13.8204ZM10.7331 16.1853L9.44583 16.6644C8.07982 17.1728 7.11578 17.5643 7.04797 17.6382C7.02536 17.6628 6.94727 17.8454 6.87451 18.0441C6.55086 18.9276 5.98018 19.5971 5.08967 20.1378C4.93623 20.231 4.8018 20.3153 4.79088 20.3251C4.73338 20.3763 5.44156 20.8772 5.75717 21.0085C5.90156 21.0686 6.19745 21.161 6.41483 21.2139C6.93937 21.3416 7.93012 21.3168 8.4977 21.1616C10.3062 20.6671 11.7903 18.9703 11.9743 17.1868L12.0061 16.8788L11.8724 16.8461C11.4286 16.7378 11.1077 16.5747 10.8872 16.3455L10.7331 16.1853ZM14.25 16.4834C14.2117 16.4821 14.0839 16.5179 13.9414 16.5711C13.7786 16.6318 13.4675 16.7215 13.2503 16.7703L12.8554 16.8589L12.8045 17.3414C12.7766 17.6066 12.7159 17.9765 12.6698 18.1634C12.6016 18.4396 12.5969 18.5178 12.6447 18.581C12.677 18.6237 12.7225 18.6586 12.7458 18.6586C12.8236 18.6586 13.5102 17.8722 13.7252 17.5367C13.977 17.144 14.2938 16.5225 14.2608 16.4862C14.2592 16.4845 14.2555 16.4836 14.25 16.4834ZM2.94913 17.7917C2.84403 17.7917 2.48484 18.2904 2.30902 18.6804C1.94944 19.478 1.80889 20.463 1.90065 21.5416C1.9316 21.9054 1.96894 22.3006 1.9836 22.4198C1.99826 22.539 2.01749 22.6366 2.02643 22.6366C2.03538 22.6366 2.10346 22.5045 2.17779 22.3433C2.42102 21.8155 2.83097 21.2634 3.29665 20.8362L3.50311 20.6468L3.35992 20.4814C3.07567 20.1529 3.05673 20.0616 3.06371 19.0556C3.07052 18.0728 3.045 17.7917 2.94913 17.7917ZM4.11294 18.2702C4.10686 18.2698 4.10253 18.2708 4.10022 18.2733C4.02236 18.3586 3.9166 19.6246 3.98141 19.6957C3.99846 19.7144 4.03051 19.7296 4.05255 19.7296C4.14023 19.7296 4.64123 19.4213 4.9212 19.195L5.21772 18.9553L4.96767 18.8016C4.83015 18.717 4.58625 18.5554 4.42565 18.4423C4.28513 18.3434 4.15551 18.2728 4.11294 18.2702V18.2702Z" fill="black" fill-opacity="0.6"/>
</svg>
