<svg width="20" height="20" viewBox="0 0 20 20" fill="none" xmlns="http://www.w3.org/2000/svg">
<path d="M10 0C4.486 0 0 4.486 0 10C0 15.514 4.486 20 10 20C15.514 20 20 15.514 20 10C20 4.486 15.514 0 10 0ZM2 10C2 9.101 2.156 8.238 2.431 7.431L4 9L6 11V13L8 15L9 16V17.931C5.061 17.436 2 14.072 2 10ZM16.33 14.873C15.677 14.347 14.687 14 14 14V13C14 12.4696 13.7893 11.9609 13.4142 11.5858C13.0391 11.2107 12.5304 11 12 11H8V8C8.53043 8 9.03914 7.78929 9.41421 7.41421C9.78929 7.03914 10 6.53043 10 6V5H11C11.5304 5 12.0391 4.78929 12.4142 4.41421C12.7893 4.03914 13 3.53043 13 3V2.589C15.928 3.778 18 6.65 18 10C17.9998 11.7647 17.4123 13.4791 16.33 14.873Z" fill="black" fill-opacity="0.6"/>
</svg>
