<svg width="21" height="22" viewBox="0 0 21 22" fill="none" xmlns="http://www.w3.org/2000/svg">
<path d="M9.69997 18H9.29997L8.89997 15.4C7.69997 15.2 6.69997 14.5 5.89997 13.6L3.49997 14.6L2.69997 13.3L4.79997 11.7C4.39997 10.5 4.39997 9.3 4.79997 8.1L2.69997 6.7L3.49997 5.4L5.89997 6.4C6.69997 5.5 7.69997 4.9 8.89997 4.6L9.19997 2H10.7L11.1 4.6C12.3 4.8 13.4 5.5 14.1 6.4L16.5 5.4L17.3 6.7L15.2 8.2C15.4 8.8 15.5 9.4 15.5 10H16C16.5 10 17 10.1 17.5 10.2V10L17.4 9L19.5 7.4C19.7 7.2 19.7 7 19.6 6.8L17.6 3.3C17.5 3 17.3 3 17 3L14.5 4C14 3.6 13.4 3.3 12.8 3L12.4 0.3C12.5 0.2 12.2 0 12 0H7.99997C7.79997 0 7.49997 0.2 7.49997 0.4L7.09997 3.1C6.49997 3.3 5.99997 3.7 5.39997 4L2.99997 3C2.69997 3 2.49997 3 2.29997 3.3L0.299973 6.8C0.199973 7 0.299973 7.2 0.499973 7.4L2.59997 9L2.49997 10L2.59997 11L0.499973 12.7C0.299973 12.9 0.299973 13.1 0.399973 13.3L2.39997 16.8C2.49997 17 2.69997 17 2.99997 17L5.49997 16C5.99997 16.4 6.59997 16.7 7.19997 17L7.59997 19.7C7.59997 19.9 7.79997 20.1 8.09997 20.1H10.6C10.1 19.4 9.89997 18.7 9.69997 18ZM14 10.3V10C14 7.8 12.2 6 9.99997 6C7.79997 6 5.99997 7.8 5.99997 10C5.99997 12.2 7.79997 14 9.99997 14C10.7 12.3 12.2 10.9 14 10.3ZM7.99997 10C7.99997 8.9 8.89997 8 9.99997 8C11.1 8 12 8.9 12 10C12 11.1 11.1 12 9.99997 12C8.89997 12 7.99997 11.1 7.99997 10Z" fill="black" fill-opacity="0.6"/>
<path d="M16 12C13.243 12 11 14.243 11 17C11 19.757 13.243 22 16 22C18.757 22 21 19.757 21 17C21 14.243 18.757 12 16 12ZM12 17C12 16.5505 12.078 16.119 12.2155 15.7155L13 16.5L14 17.5V18.5L15 19.5L15.5 20V20.9655C13.5305 20.718 12 19.036 12 17ZM19.165 19.4365C18.8385 19.1735 18.3435 19 18 19V18.5C18 18.2348 17.8946 17.9804 17.7071 17.7929C17.5196 17.6054 17.2652 17.5 17 17.5H15V16C15.2652 16 15.5196 15.8946 15.7071 15.7071C15.8946 15.5196 16 15.2652 16 15V14.5H16.5C16.7652 14.5 17.0196 14.3946 17.2071 14.2071C17.3946 14.0196 17.5 13.7652 17.5 13.5V13.2945C18.964 13.889 20 15.325 20 17C19.9999 17.8823 19.7061 18.7396 19.165 19.4365Z" fill="black" fill-opacity="0.6"/>
</svg>
