<svg xmlns="http://www.w3.org/2000/svg" viewBox="0 0 286.43 84.16"><defs><style>.cls-1{fill:none;}.cls-2{fill:#2d2d2d;}</style></defs><title>Logotype</title><g id="Layer_2" data-name="Layer 2"><g id="Layer_1-2" data-name="Layer 1"><path class="cls-1" d="M87.27,15.33H79.49c-3.16,0-4.86,1.7-4.86,4.86v44c0,3.28,1.7,4.86,4.86,4.86h7.78c3.16,0,4.86-1.58,4.86-4.86v-44C92.14,17,90.43,15.33,87.27,15.33Z"/><path class="cls-2" d="M106.86,17.16C106.86,6.09,101,.25,89.95.25H76.33C65.27.25,59.42,6.09,59.42,17.16V67.25c0,11.06,5.85,16.91,16.91,16.91H89.95c11.06,0,16.91-5.85,16.91-16.91ZM92.73,64.21c0,3.57-1.89,5.46-5.46,5.46H79.49c-3.57,0-5.46-1.89-5.46-5.46v-44c0-3.47,2-5.46,5.46-5.46h7.78c3.47,0,5.46,2,5.46,5.46Z"/><path class="cls-2" d="M168.36.25H156.94c-.95,0-1.35.4-1.35,1.35V50.24l-24-48.74c-.42-.94-.83-1.25-1.66-1.25h-9.6A1.21,1.21,0,0,0,119,1.6V82.81a1.21,1.21,0,0,0,1.35,1.35h11.43c.95,0,1.35-.4,1.35-1.35V34.17l24,48.74c.42.94.83,1.25,1.65,1.25h9.61a1.21,1.21,0,0,0,1.35-1.35V1.6A1.21,1.21,0,0,0,168.36.25Z"/><path class="cls-2" d="M229.28,2.08A1.84,1.84,0,0,0,227.45.25H216.26a1.84,1.84,0,0,0-1.84,1.84V63.85c0,3.57-1.89,5.46-5.46,5.46h-6.32c-3.57,0-5.46-1.89-5.46-5.46V2.08A1.84,1.84,0,0,0,195.35.25H183.68a1.84,1.84,0,0,0-1.84,1.84V67.25c0,11.06,5.85,16.91,16.91,16.91h13.62c11.06,0,16.91-5.85,16.91-16.91Z"/><path class="cls-2" d="M285.08.25H240.33A1.21,1.21,0,0,0,239,1.6V13.75a1.21,1.21,0,0,0,1.35,1.35H255V82.81c0,.95.4,1.35,1.35,1.35H269c1,0,1.35-.34,1.35-1.35V15.1h14.7c.95,0,1.35-.4,1.35-1.35V1.6C286.43.65,286,.25,285.08.25Z"/><path class="cls-2" d="M47.27,17c0-11.11-5.83-17-16.85-17H1.36C.41,0,0,.41,0,1.36V82.23c0,1,.34,1.36,1.36,1.36H30.41c11,0,16.85-5.83,16.85-16.85ZM32.44,63.34c0,3.55-1.87,5.42-5.42,5.42H15.31V14.82H27c3.49,0,5.42,2,5.42,5.54Z"/></g></g></svg>