<svg xmlns="http://www.w3.org/2000/svg" viewBox="0 0 444.98 128.64"><defs><style>.cls-1{fill:#bdd1ee;}.cls-2{fill:#2d2d2d;}.cls-3{fill:none;}.cls-4{fill:#8ea1ef;}.cls-5{fill:#2e4c9e;}.cls-6{fill:#d8bda8;}.cls-7{fill:#ad7e64;}.cls-8{fill:#fff;}</style></defs><title>Standard Logo</title><g id="Layer_2" data-name="Layer 2"><g id="Layer_1-2" data-name="Layer 1"><circle class="cls-1" cx="64.32" cy="64.32" r="61.46" transform="translate(-13.2 16.73) rotate(-13.45)"/><path class="cls-2" d="M64.2,128.64a64.32,64.32,0,0,1-54.67-98,64.3,64.3,0,1,1,69.75,96.17h0A64.8,64.8,0,0,1,64.2,128.64Zm.12-123a58.63,58.63,0,1,0,57,45A58.59,58.59,0,0,0,64.32,5.69Z"/><path class="cls-3" d="M29.3,98.66a3.54,3.54,0,0,1,3.11,3.87c0,1.31-.71,2.49-1,3.73v0c.51.39,1,.78,1.55,1.15.3-.27.63-.56,1-.8,1.77-1.32,3.9-3.64,6.29-3.47,2.05.14,3.06,1.53,3.36,3.45.44,2.86-2.25,8.11,2.68,4.37,3.81-2.9,8.16-3.22,8.65,2.64.07.82-.21,2-.26,3.08,1,.18,2,.33,3,.46.4-.91.72-1.86.89-2.3.76-2,1.71-3.86,4.11-4.05,2.11-.17,4.27,1.39,5.4,3a9.61,9.61,0,0,1,1.34,3.47l.65-.06c.74-3.1,1.94-6.9,3.7-8,4-2.42,6.24,2.72,8.12,5.33A53.6,53.6,0,0,0,64.33,10.36q-2,0-4,.15A53.55,53.55,0,0,0,24.59,100,5.46,5.46,0,0,1,29.3,98.66Z"/><path class="cls-4" d="M85.67,117.62A10.53,10.53,0,0,1,83,115.19c-1.91-2.58-4.8-7-8.73-4.57-1.74,1.1-2.88,4.92-3.58,8-.12.54-.23,1.06-.33,1.54-.1-.48-.2-1-.32-1.47a9.61,9.61,0,0,0-1.39-3.45c-1.16-1.62-3.34-3.15-5.45-2.95-2.4.23-3.32,2.08-4,4.11-.16.45-.46,1.4-.85,2.31-.75,1.74-1.82,3.32-2.86.83a3.07,3.07,0,0,1-.15-1.25c0-1,.3-2.26.22-3.08-.58-5.86-4.92-5.46-8.69-2.51-4.87,3.82-2.25-1.47-2.74-4.33-.33-1.92-1.36-3.29-3.41-3.4-2.39-.13-4.49,2.22-6.24,3.56-.33.25-.65.54-.95.82-1.43,1.33-2.41,2.48-1.57-1.13v0c.29-1.24,1-2.43,1-3.74a3.54,3.54,0,0,0-3.17-3.82A5.46,5.46,0,0,0,25,102.06c-1.11.87-2.12,2-3.24,2.8a3,3,0,0,0-.5.48,58.61,58.61,0,0,0,14,11.07q1.19.68,2.4,1.29A57.89,57.89,0,0,0,64.92,124q2.19,0,4.4-.23A58.26,58.26,0,0,0,87.72,119C87.38,117.66,87.61,118.58,85.67,117.62Z"/><path class="cls-4" d="M8,55.21a11.93,11.93,0,0,1,3.61-1.09c3.18-.48,8.46-.28,8.6-4.93.06-2.06-1.64-7-3.82-9.29l-1.09-1.13,1.39.55a9.61,9.61,0,0,0,3.64.78c2-.06,4.68-.58,5.7-2.44,1.15-2.12-.07-4.35-1.36-6.09-.28-.38-.9-1.17-1.44-2-1-1.59-1.73-3.36.91-2.84a3.07,3.07,0,0,1,1.12.57c.84.61,2.31,2.43,3,2.82,5.18,2.79,7-2,6.33-6.72-1.11-7.75,2.29-.33,4.93.86,1.78.8,3.68,0,4.92-1.64,1.45-1.91.67-5,.53-7.17,0-.41-.08-.84-.15-1.24-.3-1.93-.71-3.38,1.81-.67h0c.87.94,1.47,2.16,2.56,2.89A3.54,3.54,0,0,0,54.16,16a5.46,5.46,0,0,0,1.48-4.65,5.29,5.29,0,0,1,.63-3.48,12.93,12.93,0,0,0,1.2-2c-2.39.38-7.23,1.49-9.58,2.17A59.2,59.2,0,0,0,38,11.78q-1.23.61-2.42,1.27A57.89,57.89,0,0,0,15.15,32.12Q14,34,12.88,35.9A69.62,69.62,0,0,0,6,55.52C7.32,56,5.64,56.61,8,55.21Z"/><path class="cls-5" d="M63.28,6.92C71.89,5.38,93.45,12.11,101.51,21,88.27,26,70.93,20.48,63.28,6.92Z"/><path class="cls-2" d="M91.2,28.06c-13,0-25.89-7-32.44-18.58L55.17,3.1l7.2-1.29c10.59-1.9,33.79,5.54,43,15.76l5.13,5.69-7.18,2.66A34.84,34.84,0,0,1,91.2,28.06ZM77.25,13.8a28.36,28.36,0,0,0,9.37,3.44A69.62,69.62,0,0,0,77.25,13.8Z"/><path class="cls-5" d="M118.48,86.1c-1.78,8.56-16.08,26-27.38,30.18C91.49,102.16,103,88.12,118.48,86.1Z"/><path class="cls-2" d="M85.68,123.79l.22-7.66c.49-17.45,14.5-32.9,31.9-35.19l7.25-1-1.49,7.16c-2.2,10.53-17.77,29.27-30.68,34Zm21.19-27.31a28.35,28.35,0,0,0-6.69,7.41A69.55,69.55,0,0,0,106.88,96.48Z"/><path class="cls-5" d="M19.21,100.19C12.65,94.42,4.5,73.35,6.48,61.48,18.56,68.79,25.07,85.77,19.21,100.19Z"/><path class="cls-2" d="M21.27,108.93l-5.49-4.83C7.7,97-.91,74.19,1.36,60.62l1.26-7.56,6.55,4c14.93,9,21.45,28.86,14.85,45.11ZM12.76,75.5A69.55,69.55,0,0,0,15.9,85,28.36,28.36,0,0,0,12.76,75.5Z"/><path class="cls-6" d="M99.69,21.64a54.61,54.61,0,0,0-35-12.49C72.5,20.49,87.49,25.21,99.69,21.64Z"/><path class="cls-6" d="M98,112.47c-1.21.83-2.44,1.62-3.71,2.36A36.11,36.11,0,0,0,98,112.47Z"/><path class="cls-6" d="M91.41,112.81a60,60,0,0,0,24.08-26.17C103.54,89.85,93.57,101.48,91.41,112.81Z"/><path class="cls-6" d="M6.41,69.4c0-.25-.05-.5-.07-.75Q6.36,69,6.41,69.4Z"/><path class="cls-6" d="M6.29,68.09c0-.68-.07-1.36-.1-2Q6.21,67,6.29,68.09Z"/><path class="cls-6" d="M20.13,97.64c2.94-11.9-2.71-27.3-11.44-34.7C8.1,75.57,13.89,89.53,20.13,97.64Z"/><path class="cls-7" d="M6.3,68.29c0,.12,0,.23,0,.35,0-.19,0-.37,0-.56C6.29,68.16,6.29,68.22,6.3,68.29Z"/><path class="cls-7" d="M99,21.83c.61-.18,1.91-.56,2.51-.78C93.45,12.11,71.89,5.38,63.28,6.92c.43.77.9,1.51,1.4,2.23C77.92,10,88.63,14.54,99,21.83Z"/><path class="cls-7" d="M118.64,86.1a20.2,20.2,0,0,0-3.15.55,59.62,59.62,0,0,1-24.06,26,18.26,18.26,0,0,0-.34,3.59,23.61,23.61,0,0,0,3.16-1.46c1.27-.74,2.51-1.53,3.71-2.36C107.52,105.62,117.21,93,118.64,86.1Z"/><path class="cls-7" d="M19.21,100.19a12.31,12.31,0,0,0,.92-2.55c-5.55-8.07-11.2-18.05-11.44-34.7a10.09,10.09,0,0,0-2.21-1.46A25.14,25.14,0,0,0,6.19,66c0,.68.05,1.36.1,2,0,.19,0,.37,0,.56s.06.5.07.75C7.23,80.84,13.16,94.7,19.21,100.19Z"/><path class="cls-2" d="M89.39,58.38a24.91,24.91,0,0,0-6.75-12.19,6.41,6.41,0,0,0-.66-.74,22.22,22.22,0,0,0-9.44-5.63c-.47-.15-1.07-.34-1.65-.48a22.53,22.53,0,0,0-10.63-.61c-5.37.87-9.1,2.21-14.58,7.11-3,2.68-5.58,7.59-6.88,13.13a26,26,0,0,0-.27,9.3A25.28,25.28,0,0,0,50.81,86.56c.39.24,3.92,2,4.59,2.21l.33.12L56,89c.33.11,1.25.38,1.57.45.74.2,3.14.62,3.4.65a26.12,26.12,0,0,0,3.06.18,29.63,29.63,0,0,0,6.14-.66c8.73-1.86,16.52-9.3,18.94-18.08A26.67,26.67,0,0,0,89.39,58.38Z"/><path class="cls-8" d="M48.55,77c-.37-.44-.7-.91-1-1.37a20.22,20.22,0,0,1,4-26.87A19.84,19.84,0,0,1,66,44.28a19.25,19.25,0,0,1,10.47,4.11l.4.33.65.54c.39.38.8.76,1.19,1.16A20.13,20.13,0,1,1,48.55,77Z"/><path class="cls-8" d="M31.6,53.45a19.83,19.83,0,0,1,2-9.25,26.16,26.16,0,0,1,5.61-7.77,24.7,24.7,0,0,1,8.07-5.18,17.26,17.26,0,0,1,9.39-1,23.28,23.28,0,0,0-8.81,2.39,29.63,29.63,0,0,0-7.36,5.2,31.92,31.92,0,0,0-5.61,7.08A28.59,28.59,0,0,0,31.6,53.45Z"/><path class="cls-8" d="M111.36,66.08a1.77,1.77,0,0,0,0-3.54,1.77,1.77,0,0,0,0,3.54Z"/><path class="cls-8" d="M99.69,58.26a1.77,1.77,0,0,0,0-3.54,1.77,1.77,0,0,0,0,3.54Z"/><path class="cls-8" d="M97,77.37a1.77,1.77,0,0,0,0-3.54,1.77,1.77,0,0,0,0,3.54Z"/><path class="cls-8" d="M109,49.17a1.77,1.77,0,0,0,0-3.54,1.77,1.77,0,0,0,0,3.54Z"/><path class="cls-8" d="M93.55,42a1.77,1.77,0,0,0,0-3.54,1.77,1.77,0,0,0,0,3.54Z"/><path class="cls-8" d="M74.83,101a23.74,23.74,0,0,1-9.25,2.4,31.83,31.83,0,0,1-9.61-.88,32.72,32.72,0,0,1-8.92-3.68,25.16,25.16,0,0,1-7.18-6.3,42.15,42.15,0,0,0,7.89,5,43.74,43.74,0,0,0,8.67,3.14A41.79,41.79,0,0,0,65.55,102,37.8,37.8,0,0,0,74.83,101Z"/><path class="cls-3" d="M245.82,37.57H238c-3.16,0-4.86,1.7-4.86,4.86v44c0,3.28,1.7,4.86,4.86,4.86h7.78c3.16,0,4.86-1.58,4.86-4.86v-44C250.69,39.28,249,37.57,245.82,37.57Z"/><path class="cls-2" d="M265.41,39.4c0-11.06-5.85-16.91-16.91-16.91H234.88C223.82,22.49,218,28.33,218,39.4V89.49c0,11.06,5.85,16.91,16.91,16.91H248.5c11.06,0,16.91-5.85,16.91-16.91ZM251.28,86.45c0,3.57-1.89,5.46-5.46,5.46H238c-3.57,0-5.46-1.89-5.46-5.46v-44c0-3.47,2-5.46,5.46-5.46h7.78c3.47,0,5.46,2,5.46,5.46Z"/><path class="cls-2" d="M326.92,22.49H315.49c-.95,0-1.35.4-1.35,1.35V72.48l-24-48.74c-.42-.94-.83-1.25-1.66-1.25h-9.6a1.21,1.21,0,0,0-1.35,1.35v81.22a1.21,1.21,0,0,0,1.35,1.35h11.43c.95,0,1.35-.4,1.35-1.35V56.41l24,48.74c.42.94.83,1.25,1.65,1.25h9.61a1.21,1.21,0,0,0,1.35-1.35V23.84A1.21,1.21,0,0,0,326.92,22.49Z"/><path class="cls-2" d="M387.84,24.32A1.84,1.84,0,0,0,386,22.49H374.81A1.84,1.84,0,0,0,373,24.32V86.09c0,3.57-1.89,5.46-5.46,5.46H361.2c-3.57,0-5.46-1.89-5.46-5.46V24.32a1.84,1.84,0,0,0-1.84-1.84H342.23a1.84,1.84,0,0,0-1.84,1.84V89.49c0,11.06,5.85,16.91,16.91,16.91h13.62c11.06,0,16.91-5.85,16.91-16.91Z"/><path class="cls-2" d="M443.63,22.49H398.88a1.21,1.21,0,0,0-1.35,1.35V36a1.21,1.21,0,0,0,1.35,1.35h14.7v67.71c0,.95.4,1.35,1.35,1.35h12.64c1,0,1.35-.34,1.35-1.35V37.34h14.7c.95,0,1.35-.4,1.35-1.35V23.84C445,22.89,444.57,22.49,443.63,22.49Z"/><path class="cls-2" d="M205.82,39.22c0-11.11-5.83-17-16.85-17H159.91c-1,0-1.36.41-1.36,1.36v80.87c0,1,.34,1.36,1.36,1.36H189c11,0,16.85-5.83,16.85-16.85ZM191,85.58c0,3.55-1.87,5.42-5.42,5.42H173.86V37.06h11.71c3.49,0,5.42,2,5.42,5.54Z"/></g></g></svg>