<svg width="276" height="80" viewBox="0 0 276 80" fill="none" xmlns="http://www.w3.org/2000/svg">
<path d="M76.9719 31.1033C72.0518 10.6292 51.4982 -1.98865 31.0241 2.9315C10.5499 7.77229 -2.06794 28.3258 2.85222 48.8C7.69301 69.2742 28.2466 81.892 48.7207 77.0512C69.1949 72.1311 81.8127 51.5775 76.9719 31.1033ZM47.7684 49.5142C42.5309 53.7995 34.5951 53.244 30.0718 47.7684C29.8337 47.5303 29.675 47.2129 29.4369 46.8954C25.9452 41.7372 26.7388 34.4363 31.897 30.2304C34.5158 28.0878 37.5314 27.2148 40.8644 27.4529C43.2451 27.6116 45.4671 28.4846 47.3717 29.9923C47.451 30.0717 47.5304 30.1511 47.6097 30.2304C47.7684 30.3098 47.8478 30.4685 48.0065 30.5478C48.2446 30.7859 48.4827 31.024 48.7207 31.2621C53.7996 36.4996 53.4028 44.8322 47.7684 49.5142Z" fill="#BDD1EE"/>
<path d="M39.8327 79.8288C32.5318 79.8288 25.3897 77.8448 19.0411 73.9563C9.91499 68.322 3.5664 59.5927 1.10633 49.1969C-1.35375 38.801 0.312753 28.1672 5.86776 19.0411C11.4228 9.99434 20.2314 3.5664 30.5479 1.10633C40.8643 -1.35375 51.5776 0.312753 60.7037 5.86776C69.8298 11.5815 76.1783 20.3108 78.6384 30.7066C83.7173 52.0537 70.544 73.6389 49.1175 78.7178C46.0226 79.432 42.9276 79.8288 39.8327 79.8288ZM39.912 3.5664C37.1345 3.5664 34.2777 3.88383 31.4208 4.59805C21.9773 6.82005 13.9622 12.6925 8.88334 20.9457C3.80447 29.1988 2.29669 38.9598 4.51869 48.4033C6.74069 57.8468 12.6131 65.8619 20.8663 70.9408C29.1195 76.0196 38.8804 77.6068 48.3239 75.3054C67.8458 70.6233 79.9081 51.0221 75.2261 31.5002C71.2582 14.8351 56.339 3.5664 39.912 3.5664Z" fill="#2D2D2D"/>
<path d="M53.0853 73.004C52.6885 72.8453 51.895 72.0517 51.4188 71.4962C50.2285 69.9091 48.4826 67.1315 46.0225 68.6393C44.9115 69.3536 44.1973 71.6549 43.8005 73.6388C43.7212 73.9563 43.6418 74.2737 43.5624 74.5911C43.4831 74.2737 43.4037 73.9563 43.3244 73.7182C43.1657 72.9246 42.9276 72.2104 42.4514 71.5756C41.7372 70.5439 40.3881 69.5916 39.0391 69.7503C37.5313 69.9091 36.9758 71.0201 36.4996 72.2898C36.4203 72.5278 36.1822 73.1627 35.9441 73.7182C35.468 74.8292 34.8331 75.7815 34.1983 74.2737C34.1189 74.0356 34.1189 73.7976 34.1189 73.4801C34.1189 72.8453 34.2776 72.0517 34.2776 71.5756C33.8808 67.9251 31.2621 68.1632 28.8813 69.9884C25.8658 72.3691 27.4529 69.1155 27.2148 67.2903C26.9768 66.0999 26.3419 65.227 25.0722 65.1476C23.5644 65.0683 22.2947 66.4967 21.1837 67.3696C20.9456 67.5283 20.7869 67.687 20.6282 67.8458C19.7552 68.6393 19.1204 69.3536 19.6759 67.1315C19.8346 66.338 20.3107 65.6238 20.3107 64.8302C20.3107 63.4811 19.6759 62.6875 18.3268 62.4495C17.1365 62.2114 16.2635 62.6875 15.3906 63.3224C14.6764 63.8779 14.0415 64.5128 13.4067 65.0683C13.2479 65.1476 13.1686 65.227 13.0892 65.3857C14.1209 66.4967 15.2319 67.5283 16.3429 68.4806C18.0094 69.909 19.8346 71.1788 21.7392 72.2104C22.2153 72.5278 22.6915 72.7659 23.247 73.004C24.5167 73.6388 25.7864 74.1943 27.0561 74.6705C28.1671 75.0673 29.3575 75.4641 30.5478 75.7815C33.6428 76.5751 36.8964 76.9719 40.1501 76.8925C41.023 76.8925 41.9753 76.8131 42.8482 76.7338C46.8954 76.337 50.7046 75.3847 54.2757 73.7976C54.1963 73.004 54.355 73.6388 53.0853 73.004Z" fill="#8EA1EF"/>
<path d="M4.91547 34.2777C5.31226 34.0396 6.18519 33.7222 7.13747 33.6428C9.12141 33.3254 12.3751 33.4841 12.4544 30.6272C12.4544 29.3575 11.4228 26.342 10.0737 24.8342C9.83562 24.5961 9.59755 24.358 9.35948 24.1199C9.67691 24.1993 9.91498 24.358 10.2324 24.4374C10.9466 24.6755 11.7402 24.9135 12.4544 24.9135C13.7241 24.9135 15.3906 24.5961 16.0255 23.4057C16.7397 22.0567 15.9461 20.7076 15.1526 19.5966C14.9938 19.3585 14.5971 18.8824 14.2796 18.3269C13.6448 17.3746 13.1686 16.2636 14.8351 16.581C15.0732 16.6604 15.3113 16.7397 15.5493 16.8984C16.1048 17.2952 16.9778 18.4062 17.4539 18.6443C20.6282 20.3902 21.8186 17.4539 21.3424 14.4384C20.6282 9.59756 22.7709 14.2003 24.4374 14.9939C25.5484 15.47 26.7387 14.9939 27.4529 13.9622C28.3259 12.7719 27.8497 10.8673 27.7704 9.5182C27.7704 9.28013 27.691 8.9627 27.691 8.72463C27.5323 7.53427 27.2149 6.66134 28.802 8.32784C29.3575 8.88335 29.6749 9.67692 30.3892 10.1531C31.5002 10.8673 32.5318 10.7879 33.4841 9.83563C34.357 8.9627 34.5157 8.01042 34.4364 6.97877C34.357 6.10584 34.357 5.70905 34.8332 4.83612C34.9125 4.67741 35.6267 3.72512 35.5474 3.56641C34.0396 3.80448 31.1034 4.51869 29.5956 4.91548C27.4529 5.55034 25.3897 6.34391 23.4851 7.2962C23.0089 7.53427 22.4534 7.77234 21.9773 8.08977C20.7869 8.80399 19.5966 9.5182 18.4856 10.3118C17.4539 11.026 16.5016 11.8196 15.6287 12.6131C13.248 14.7558 11.1053 17.2159 9.35948 19.914C8.88333 20.7076 8.40719 21.4218 7.93105 22.2947C5.94711 25.8658 4.35997 30.6272 3.64575 34.4364C4.51868 34.8332 3.48704 35.1506 4.91547 34.2777Z" fill="#8EA1EF"/>
<path d="M39.1984 4.35994C44.5153 3.40765 57.9267 7.61359 62.9262 13.0892C54.7524 16.1842 43.9598 12.7718 39.1984 4.35994Z" fill="#2E4C9E"/>
<path d="M56.5774 17.4539C48.4829 17.4539 40.5472 13.1686 36.5 5.94709L34.278 1.97922L38.722 1.18565C45.2293 -0.00471139 59.5929 4.59801 65.3067 10.9466L68.481 14.4383L64.0369 16.1048C61.6562 17.0571 59.1168 17.4539 56.5774 17.4539ZM47.9274 8.64524C49.7526 9.67688 51.7366 10.3911 53.7205 10.7879C51.8159 9.91495 49.832 9.20074 47.9274 8.64524Z" fill="#2D2D2D"/>
<path d="M73.4803 53.4821C72.3693 58.799 63.4812 69.5916 56.4978 72.2104C56.7359 63.4017 63.878 54.7518 73.4803 53.4821Z" fill="#2E4C9E"/>
<path d="M53.0858 76.8131L53.2445 72.0517C53.562 61.2591 62.2119 51.6568 73.0045 50.2284L77.5279 49.6729L76.5756 54.1169C75.2265 60.6242 65.5449 72.2897 57.5298 75.226L53.0858 76.8131ZM66.2591 59.91C64.5926 61.1797 63.1642 62.7669 62.1326 64.5127C63.6403 63.0843 65.0688 61.4972 66.2591 59.91Z" fill="#2D2D2D"/>
<path d="M11.8992 62.2114C7.85196 58.6403 2.77309 45.5464 4.04281 38.1661C11.5024 42.6895 15.5496 53.244 11.8992 62.2114Z" fill="#2E4C9E"/>
<path d="M13.1687 67.6077L9.75638 64.5921C4.75687 60.2275 -0.560069 46.1019 0.868363 37.69L1.66194 33.0079L5.70916 35.468C14.994 41.1024 19.0412 53.3234 14.9146 63.4018L13.1687 67.6077ZM7.93116 46.8955C8.40731 48.8794 9.12152 50.9427 9.9151 52.7679C9.59767 50.7046 8.88345 48.7207 7.93116 46.8955Z" fill="#2D2D2D"/>
<path d="M61.8146 13.4859C55.8628 8.56579 48.2445 5.70892 40.0707 5.70892C44.9115 12.7717 54.2756 15.7079 61.8146 13.4859Z" fill="#D8BDA8"/>
<path d="M60.7033 69.8297C59.9891 70.3059 59.1956 70.8614 58.402 71.2581C59.1956 70.8614 59.9891 70.3852 60.7033 69.8297Z" fill="#D8BDA8"/>
<path d="M56.6564 69.9884C62.9256 66.4967 68.56 60.3068 71.5755 53.7995C64.1953 55.7834 58.0054 63.0049 56.6564 69.9884Z" fill="#D8BDA8"/>
<path d="M3.96315 43.0863C3.96315 42.9276 3.96315 42.7689 3.88379 42.6102C3.96315 42.7689 3.96315 42.9276 3.96315 43.0863Z" fill="#D8BDA8"/>
<path d="M3.88356 42.2926C3.88356 41.8958 3.8042 41.4197 3.8042 41.0229C3.8042 41.4197 3.88356 41.8958 3.88356 42.2926Z" fill="#D8BDA8"/>
<path d="M12.454 60.6242C14.2792 53.244 10.7875 43.7211 5.39122 39.1184C4.99444 46.8954 8.64487 55.5454 12.454 60.6242Z" fill="#D8BDA8"/>
<path d="M61.4179 13.6447C61.8147 13.5653 62.6083 13.3272 63.0051 13.1685C58.0055 7.6135 44.6735 3.48692 39.2772 4.43921C39.5153 4.91535 39.8327 5.3915 40.1502 5.78828C48.324 6.26443 54.9106 9.12129 61.4179 13.6447Z" fill="#AD7E64"/>
<path d="M73.5593 53.4821C72.7657 53.5614 72.3689 53.6408 71.5753 53.7995C68.5598 60.3068 63.0047 66.4173 56.6562 69.909C56.4975 70.7819 56.4974 71.1787 56.4181 72.131C57.0529 71.893 57.6878 71.5755 58.402 71.2581C59.1956 70.7819 59.9892 70.3058 60.7034 69.8297C66.6552 65.5444 72.6863 57.688 73.5593 53.4821Z" fill="#AD7E64"/>
<path d="M11.8985 62.2113C12.2159 61.4178 12.2953 61.4971 12.454 60.6242C9.04165 55.6247 5.54993 49.4348 5.39122 39.1184C4.677 38.4835 4.75636 38.6422 4.04214 38.1661C3.88343 39.039 3.80407 39.9913 3.88343 41.0229C3.88343 41.4197 3.88343 41.8959 3.96278 42.2927C3.96278 42.372 3.96278 42.5307 3.96278 42.6101C3.96278 42.7688 3.96278 42.9275 3.96278 43.0862C4.43893 50.2284 8.16872 58.799 11.8985 62.2113Z" fill="#AD7E64"/>
<path d="M55.3864 36.2615C54.8309 33.484 53.3231 30.8652 51.1805 28.7226C51.1011 28.5639 50.9424 28.4052 50.7837 28.2465C49.0378 26.58 46.9745 25.3102 44.9112 24.7547C44.5938 24.6754 44.2764 24.5167 43.8796 24.4373C41.1021 23.6437 39.3562 23.7231 37.2929 24.0405C33.9599 24.596 31.6586 25.3896 28.2462 28.4845C26.421 30.151 24.7545 33.1666 23.9609 36.6583C23.5641 38.3248 23.4848 40.6262 23.8022 42.4514C24.5958 47.3716 27.1352 51.1807 31.4205 53.7995C31.6586 53.9582 33.8806 54.9899 34.2774 55.1486C34.3567 55.1486 34.4361 55.2279 34.5154 55.2279L34.6741 55.3073C34.9122 55.3867 35.4677 55.5454 35.6264 55.6247C36.1026 55.7834 37.6104 56.0215 37.7691 56.0215C38.4039 56.1009 39.0388 56.1009 39.6737 56.1009C40.9434 56.1009 42.2131 55.9422 43.4828 55.7041C48.8791 54.5137 53.7199 49.911 55.2277 44.5147C55.9419 41.8959 56.0213 39.1184 55.3864 36.2615ZM47.7681 49.5142C42.5305 53.7995 34.5948 53.244 30.0714 47.7684C29.8333 47.5303 29.6746 47.2129 29.4366 46.8954C25.9448 41.7372 26.7384 34.4363 31.8966 30.2304C34.5154 28.0877 37.531 27.2148 40.864 27.4529C43.2447 27.6116 45.4667 28.4845 47.3713 29.9923C47.4507 30.0717 47.53 30.151 47.6094 30.2304C47.7681 30.3097 47.8475 30.4685 48.0062 30.5478C48.2442 30.7859 48.4823 31.024 48.7204 31.262C53.7993 36.4996 53.4025 44.8321 47.7681 49.5142Z" fill="#2D2D2D"/>
<path d="M19.5965 33.2459C19.5171 31.262 19.9933 29.2781 20.7868 27.5322C21.6598 25.707 22.8501 24.1198 24.2786 22.6914C25.707 21.3423 27.4529 20.152 29.2781 19.5171C31.1033 18.8029 33.1666 18.4855 35.0712 18.8823C33.0872 19.041 31.262 19.5171 29.5955 20.3901C27.929 21.1836 26.3419 22.2946 25.0721 23.6437C23.7231 24.9134 22.5327 26.4212 21.5804 28.0084C20.7075 29.5161 19.9933 31.3414 19.5965 33.2459Z" fill="white"/>
<path d="M69.036 41.023C70.4645 41.023 70.4645 38.801 69.036 38.801C67.6076 38.8804 67.6076 41.023 69.036 41.023Z" fill="white"/>
<path d="M61.8145 36.1822C63.2429 36.1822 63.2429 33.9602 61.8145 33.9602C60.3861 33.9602 60.3861 36.1822 61.8145 36.1822Z" fill="white"/>
<path d="M60.1485 48.0065C61.5769 48.0065 61.5769 45.7845 60.1485 45.7845C58.72 45.8638 58.72 48.0065 60.1485 48.0065Z" fill="white"/>
<path d="M67.6079 30.5479C69.0364 30.5479 69.0364 28.3259 67.6079 28.3259C66.1795 28.4052 66.1795 30.5479 67.6079 30.5479Z" fill="white"/>
<path d="M58.0056 26.1039C59.4341 26.1039 59.4341 23.8819 58.0056 23.8819C56.5772 23.9613 56.5772 26.1039 58.0056 26.1039Z" fill="white"/>
<path d="M46.4195 62.6876C44.6737 63.5605 42.6898 64.0367 40.7058 64.1954C38.7219 64.3541 36.6586 64.116 34.754 63.6399C32.8494 63.1637 30.9449 62.3702 29.199 61.3385C27.4532 60.3069 25.9454 59.0372 24.755 57.45C26.2628 58.7197 27.9293 59.672 29.6752 60.5449C31.421 61.3385 33.1669 62.0527 35.0715 62.5289C36.8967 63.005 38.8012 63.2431 40.7058 63.3224C42.531 63.3224 44.4356 63.1637 46.4195 62.6876Z" fill="white"/>
<path d="M164.582 24.5169C164.582 17.6922 160.932 14.0417 154.107 14.0417H145.695C138.871 14.0417 135.22 17.6922 135.22 24.5169V55.5456C135.22 62.3703 138.871 66.0208 145.695 66.0208H154.107C160.932 66.0208 164.582 62.3703 164.582 55.5456V24.5169ZM155.774 53.641C155.774 55.863 154.583 57.0534 152.361 57.0534H147.6C145.378 57.0534 144.188 55.863 144.188 53.641V26.4215C144.188 24.2788 145.457 23.0091 147.6 23.0091H152.441C154.583 23.0091 155.853 24.2788 155.853 26.4215V53.641H155.774Z" fill="#2D2D2D"/>
<path d="M202.674 14.0417H195.611C195.055 14.0417 194.738 14.2798 194.738 14.9147V45.0705L179.898 14.8353C179.66 14.2798 179.343 14.0417 178.866 14.0417H172.915C172.359 14.0417 172.042 14.3592 172.042 14.9147V65.3066C172.042 65.8621 172.359 66.1795 172.915 66.1795H179.977C180.533 66.1795 180.85 65.9414 180.85 65.3066V35.1508L195.69 65.3859C195.928 65.9414 196.246 66.1795 196.722 66.1795H202.674C203.229 66.1795 203.547 65.8621 203.547 65.3066V14.8353C203.547 14.2798 203.229 14.0417 202.674 14.0417Z" fill="#2D2D2D"/>
<path d="M240.448 15.1528C240.448 14.5179 239.972 14.0417 239.337 14.0417H232.433C231.798 14.0417 231.322 14.5179 231.322 15.1528V53.4823C231.322 55.7043 230.132 56.8947 227.91 56.8947H224.021C221.799 56.8947 220.609 55.7043 220.609 53.4823V15.1528C220.609 14.5179 220.133 14.0417 219.498 14.0417H212.276C211.641 14.0417 211.165 14.5179 211.165 15.1528V55.5456C211.165 62.3703 214.816 66.0208 221.64 66.0208H230.052C236.877 66.0208 240.527 62.3703 240.527 55.5456V15.1528H240.448Z" fill="#2D2D2D"/>
<path d="M275.048 14.0417H247.273C246.717 14.0417 246.4 14.3592 246.4 14.9147V22.4536C246.4 23.0091 246.717 23.3266 247.273 23.3266H256.399V65.3066C256.399 65.8621 256.637 66.1795 257.272 66.1795H265.128C265.763 66.1795 266.001 65.9414 266.001 65.3066V23.2472H275.127C275.683 23.2472 276 23.0091 276 22.3743V14.8353C275.921 14.2798 275.603 14.0417 275.048 14.0417Z" fill="#2D2D2D"/>
<path d="M127.602 24.3581C127.602 17.454 123.951 13.8036 117.127 13.8036H99.1124C98.5569 13.8036 98.2395 14.0417 98.2395 14.6765V64.8303C98.2395 65.4652 98.4776 65.7033 99.1124 65.7033H117.127C123.951 65.7033 127.602 62.0528 127.602 55.2281V24.3581ZM118.396 53.1648C118.396 55.3868 117.206 56.4978 115.063 56.4978H107.762V23.0884H115.063C117.206 23.0884 118.396 24.2788 118.396 26.5008V53.1648Z" fill="#2D2D2D"/>
</svg>
