<?xml version="1.0" encoding="iso-8859-1"?>
<!-- Generator: Adobe Illustrator 19.0.0, SVG Export Plug-In . SVG Version: 6.00 Build 0)  -->
<svg version="1.1" id="Capa_1" xmlns="http://www.w3.org/2000/svg" xmlns:xlink="http://www.w3.org/1999/xlink" x="0px" y="0px"
	 viewBox="0 0 512 512" style="enable-background:new 0 0 512 512;" xml:space="preserve">
<g>
	<path style="fill:#303C42;" d="M330.667,384c-5.896,0-10.667,4.771-10.667,10.667v74.667c0,11.76-9.573,21.333-21.333,21.333h-256
		c-11.76,0-21.333-9.573-21.333-21.333V42.667c0-11.76,9.573-21.333,21.333-21.333h256c11.76,0,21.333,9.573,21.333,21.333v74.667
		c0,5.896,4.771,10.667,10.667,10.667c5.896,0,10.667-4.771,10.667-10.667V42.667C341.333,19.135,322.198,0,298.667,0h-256
		C19.135,0,0,19.135,0,42.667v426.667C0,492.865,19.135,512,42.667,512h256c23.531,0,42.667-19.135,42.667-42.667v-74.667
		C341.333,388.771,336.563,384,330.667,384z"/>
	<path style="fill:#303C42;" d="M508.542,248.135l-128-117.333c-4.365-3.979-11.083-3.677-15.073,0.656
		c-3.979,4.344-3.688,11.094,0.656,15.073l107.79,98.802H138.667c-5.896,0-10.667,4.771-10.667,10.667
		c0,5.896,4.771,10.667,10.667,10.667h335.249l-107.79,98.802c-4.344,3.979-4.635,10.729-0.656,15.073
		c2.104,2.292,4.979,3.458,7.865,3.458c2.573,0,5.156-0.927,7.208-2.802l128-117.333C510.75,261.844,512,258.99,512,256
		C512,253.01,510.75,250.156,508.542,248.135z"/>
</g>
<linearGradient id="SVGID_1_" gradientUnits="userSpaceOnUse" x1="-49.2745" y1="639.416" x2="-25.5203" y2="628.3345" gradientTransform="matrix(21.3333 0 0 -21.3333 996.3334 13791.667)">
	<stop  offset="0" style="stop-color:#FFFFFF;stop-opacity:0.2"/>
	<stop  offset="1" style="stop-color:#FFFFFF;stop-opacity:0"/>
</linearGradient>
<path style="fill:url(#SVGID_1_);" d="M330.667,384c-5.896,0-10.667,4.771-10.667,10.667v74.667c0,11.76-9.573,21.333-21.333,21.333
	h-256c-11.76,0-21.333-9.573-21.333-21.333V42.667c0-11.76,9.573-21.333,21.333-21.333h256c11.76,0,21.333,9.573,21.333,21.333
	v74.667c0,5.896,4.771,10.667,10.667,10.667c5.896,0,10.667-4.771,10.667-10.667V42.667C341.333,19.135,322.198,0,298.667,0h-256
	C19.135,0,0,19.135,0,42.667v426.667C0,492.865,19.135,512,42.667,512h256c23.531,0,42.667-19.135,42.667-42.667v-74.667
	C341.333,388.771,336.563,384,330.667,384z M508.542,248.135l-128-117.333c-4.365-3.979-11.083-3.677-15.073,0.656
	c-3.979,4.344-3.688,11.094,0.656,15.073l107.79,98.802H138.667c-5.896,0-10.667,4.771-10.667,10.667
	c0,5.896,4.771,10.667,10.667,10.667h335.249l-107.79,98.802c-4.344,3.979-4.635,10.729-0.656,15.073
	c2.104,2.292,4.979,3.458,7.865,3.458c2.573,0,5.156-0.927,7.208-2.802l128-117.333C510.75,261.844,512,258.99,512,256
	C512,253.01,510.75,250.156,508.542,248.135z"/>
<g>
</g>
<g>
</g>
<g>
</g>
<g>
</g>
<g>
</g>
<g>
</g>
<g>
</g>
<g>
</g>
<g>
</g>
<g>
</g>
<g>
</g>
<g>
</g>
<g>
</g>
<g>
</g>
<g>
</g>
</svg>
