<svg width="27" height="28" viewBox="0 0 27 28" fill="none" xmlns="http://www.w3.org/2000/svg">
<path d="M6.51342 19.6003H16.2764V22.4003H6.51342V19.6003ZM6.51342 14.0004H20.4605V16.8004H6.51342V14.0004ZM6.51342 8.40044H20.4605V11.2004H6.51342V8.40044ZM23.25 2.8005H17.4201C17.1345 1.98212 16.6026 1.27305 15.898 0.771385C15.1934 0.269717 14.3508 0.000244141 13.487 0.000244141C12.6231 0.000244141 11.7806 0.269717 11.076 0.771385C10.3714 1.27305 9.83947 1.98212 9.55389 2.8005H3.72399C3.53651 2.79762 3.34931 2.81641 3.16611 2.8565C2.72251 2.95149 2.30829 3.15255 1.95865 3.44258C1.609 3.73262 1.33425 4.10307 1.15773 4.52248C1.01027 4.86258 0.934299 5.22956 0.934571 5.60047V25.2003C0.937212 25.5754 1.01302 25.9464 1.15773 26.2923C1.30136 26.6252 1.50464 26.9289 1.75745 27.1882C2.14217 27.5773 2.63181 27.8449 3.16611 27.9582C3.35072 27.9866 3.53723 28.0007 3.72399 28.0002H23.25C23.9891 27.998 24.6973 27.7023 25.2199 27.1777C25.7426 26.6531 26.0372 25.9422 26.0394 25.2003V5.60047C26.0372 4.85855 25.7426 4.14766 25.2199 3.62304C24.6973 3.09842 23.9891 2.80271 23.25 2.8005ZM13.487 2.4505C13.6939 2.4505 13.8961 2.51208 14.0681 2.62746C14.2401 2.74283 14.3742 2.90682 14.4534 3.09868C14.5326 3.29054 14.5533 3.50166 14.5129 3.70533C14.4725 3.90901 14.3729 4.0961 14.2266 4.24295C14.0803 4.38979 13.894 4.48979 13.691 4.5303C13.4881 4.57082 13.2778 4.55003 13.0867 4.47055C12.8955 4.39108 12.7322 4.2565 12.6172 4.08383C12.5023 3.91116 12.4409 3.70816 12.4409 3.50049C12.4428 3.22258 12.5536 2.95658 12.7493 2.76006C12.9451 2.56355 13.2101 2.45234 13.487 2.4505ZM23.25 25.2003H3.72399V5.60047H23.25V25.2003Z" fill="#1A73E8"/>
</svg>
