<svg width="27" height="28" viewBox="0 0 27 28" fill="none" xmlns="http://www.w3.org/2000/svg">
<path d="M23.25 2.8H21.8552V0H19.0658V2.8H7.90813V0H5.1187V2.8H3.72399C3.35839 2.80018 2.99642 2.87283 2.65885 3.01378C2.32129 3.15473 2.01477 3.3612 1.7569 3.62136C1.49903 3.88151 1.29487 4.19021 1.15615 4.52976C1.01742 4.86931 0.946865 5.23301 0.948517 5.6L0.93457 25.2C0.93457 25.9426 1.22846 26.6548 1.75157 27.1799C2.27469 27.705 2.98419 28 3.72399 28H23.25C23.9891 27.9978 24.6973 27.7021 25.2199 27.1775C25.7426 26.6528 26.0372 25.9419 26.0394 25.2V5.6C26.0372 4.85808 25.7426 4.14717 25.2199 3.62255C24.6973 3.09793 23.9891 2.80222 23.25 2.8ZM23.25 25.2H3.72399V11.2H23.25V25.2ZM23.25 8.4H3.72399V5.6H23.25V8.4ZM13.487 15.4H20.4605V22.4H13.487V15.4Z" fill="#1A73E8"/>
</svg>
